<?xml version="1.0" encoding="utf-8"?>
<!-- Generator: Adobe Illustrator 22.0.0, SVG Export Plug-In . SVG Version: 6.00 Build 0)  -->
<svg version="1.1" id="TEXT" xmlns="http://www.w3.org/2000/svg" xmlns:xlink="http://www.w3.org/1999/xlink" x="0px" y="0px"
	 viewBox="0 0 46.9 37.8" style="enable-background:new 0 0 46.9 37.8;" xml:space="preserve">
<style type="text/css">
	.st0{fill:none;stroke:#000000;stroke-width:0.75;stroke-miterlimit:10;}
	.st1{fill:none;stroke:#FFFFFF;stroke-width:0.4606;stroke-miterlimit:10;}
	.st2{fill:none;stroke:#000000;stroke-width:0.5;stroke-miterlimit:10;}
	.st3{fill:none;stroke:#000000;stroke-width:0.5;stroke-miterlimit:10;stroke-dasharray:2.01,2.01;}
</style>
<path class="st0" d="M18.6,19.1c4.8,0,8.7,3.9,8.7,8.7s-3.9,8.7-8.7,8.7s-8.7-3.9-8.7-8.7S13.8,19.1,18.6,19.1L18.6,19.1L18.6,19.1z
	"/>
<path class="st0" d="M18.6,1.8c9.6,0,17.3,7.8,17.3,17.3s-7.8,17.3-17.3,17.3S1.2,28.7,1.2,19.1S9,1.8,18.6,1.8L18.6,1.8L18.6,1.8z"
	/>
<line class="st1" x1="22.3" y1="19.1" x2="46.1" y2="19.1"/>
<g>
	<g>
		<line class="st2" x1="18" y1="1.8" x2="19" y2="1.8"/>
		<line class="st3" x1="21" y1="1.8" x2="44.1" y2="1.8"/>
		<line class="st2" x1="45.1" y1="1.8" x2="46.1" y2="1.8"/>
	</g>
</g>
<g>
	<g>
		<line class="st2" x1="18" y1="19.1" x2="19" y2="19.1"/>
		<line class="st3" x1="21" y1="19.1" x2="44.1" y2="19.1"/>
		<line class="st2" x1="45.1" y1="19.1" x2="46.1" y2="19.1"/>
	</g>
</g>
</svg>
